<?xml version="1.0" encoding="utf-8"?>
<!-- Svg Vector Icons : http://www.onlinewebfonts.com/icon -->
<!DOCTYPE svg PUBLIC "-//W3C//DTD SVG 1.1//EN" "http://www.w3.org/Graphics/SVG/1.1/DTD/svg11.dtd">
<svg version="1.1" xmlns="http://www.w3.org/2000/svg" xmlns:xlink="http://www.w3.org/1999/xlink" x="0px" y="0px" viewBox="0 0 1000 1000" enable-background="new 0 0 1000 1000" xml:space="preserve">
<metadata> Svg Vector Icons : http://www.onlinewebfonts.com/icon </metadata>
<g><g transform="translate(0.000000,512.000000) scale(0.100000,-0.100000)"><path d="M1249.8,4992.8c-465.7-92-864.2-425.4-1046.3-875.7C96.2,3856.4,100,3994.4,100,315.1c0-3717.6-5.7-3539.4,109.2-3811.5c166.7-396.7,534.6-718.6,958.1-839.3c149.5-42.2,157.1-42.2,2295.7-51.7l2146.2-9.6l201.2-101.6c220.4-111.1,469.5-193.6,737.8-247.2c239.5-46,776.1-46,1015.6,1.9c1050.1,207,1889.5,946.6,2209.5,1946.9c99.6,314.3,126.5,490.6,126.5,862.3c1.9,490.6-78.6,847-279.8,1245.6l-101.6,201.2l-9.6,2146.3c-9.6,2138.6-9.6,2146.2-51.7,2295.7c-149.5,525.1-576.8,927.5-1101.9,1036.7c-132.2,26.8-509.7,30.7-3564.3,28.7C2073.8,5017.7,1349.5,5012,1249.8,4992.8z M8380.3,4567.4c226.1-78.6,435-241.4,561.5-444.6c26.8-42.2,70.9-141.8,97.7-220.4l47.9-143.7V1928.7V96.7l-168.6,141.8c-1004.1,850.8-2366.6,931.3-3472.3,207c-216.5-143.7-626.6-553.8-770.3-770.4c-429.2-655.4-582.5-1402.7-438.8-2142.4c95.8-496.3,306.6-929.4,645.8-1329.9l141.8-168.6h-1832H1362.9l-143.7,47.9c-325.8,109.2-563.4,348.8-665,670.7l-42.2,134.1V317.1c0,3274.9,1.9,3435.9,34.5,3545.1c107.3,350.7,369.8,613.2,703.3,707.1c57.5,15.3,132.2,32.6,162.9,36.4c32.6,3.8,1582.9,7.7,3449.3,5.8l3391.8-1.9L8380.3,4567.4z M7426,489.5c467.6-70.9,935.1-297,1285.8-624.7c655.4-611.3,927.5-1506.2,722.4-2366.6c-166.7-693.7-642-1293.5-1282-1615.4c-605.6-306.6-1328-344.9-1968.1-103.5c-195.4,72.8-304.7,130.3-496.3,260.6C5003.8-3492.5,4603.3-2739.4,4603.3-1925c1.9,1109.5,758.9,2086.9,1830.1,2364.7C6747.7,522.1,7098.4,539.3,7426,489.5z"/><path d="M2618.1,3730l-65.2-65.2v-548.1v-548.1h-548.1h-548.1l-65.2-65.2c-72.8-72.8-84.3-147.6-38.3-239.5c47.9-92,86.2-97.7,663-97.7h536.6v-536.6c0-373.7,7.7-550,23-584.5c49.8-107.3,222.3-139.9,316.2-59.4l53.7,46l9.6,563.4l9.6,561.5l561.5,9.6l563.4,9.6l46,53.7c80.5,93.9,47.9,266.4-59.4,316.2c-34.5,15.3-210.8,23-584.5,23h-536.6v536.6c0,576.8-5.7,615.1-97.7,663C2765.6,3814.3,2690.9,3802.8,2618.1,3730z"/><path d="M5935.1,2545.7c-70.9-38.3-105.4-99.6-105.4-184c0-67.1,11.5-93.9,55.6-139.9l55.6-55.6h1101.9c1075,0,1101.9,0,1149.8,38.3c72.8,57.5,99.6,153.3,63.2,235.7c-53.6,132.2-23,128.4-1213,128.4C6303.1,2566.8,5962,2561,5935.1,2545.7z"/><path d="M1424.2-735c-59.4-32.6-95.8-101.6-97.7-184c0-59.4,36.4-101.6,469.5-536.6l469.5-469.5l-442.7-440.8c-243.4-243.4-454.2-463.7-469.5-492.5c-36.4-70.9-34.5-128.4,9.6-199.3c46-76.7,145.6-113.1,224.2-84.3c30.7,11.5,260.6,226.1,511.6,475.2l454.2,454.2l465.7-461.8c302.8-302.8,481-467.6,515.5-475.3c153.3-34.5,295.1,143.7,224.2,281.7c-11.5,23-222.3,245.3-469.5,492.5L2840.3-1925l459.9,459.9c502.1,502.1,519.3,527,450.3,651.5c-38.3,72.8-99.7,105.4-197.4,105.4c-65.2,0-97.7-26.8-534.7-463.7l-465.7-463.7l-465.7,463.7c-452.2,450.3-467.6,463.7-540.4,463.7C1504.7-710.1,1449.1-721.6,1424.2-735z"/><path d="M5935.1-1133.6c-70.9-38.3-105.4-99.6-105.4-184c0-67.1,11.5-93.9,55.6-139.9l55.6-55.6h1101.9c1065.4,0,1101.9,1.9,1147.9,38.3c115,90.1,109.2,254.9-11.5,327.7c-57.5,34.5-107.3,36.4-1132.5,36.4C6303.1-1112.5,5962-1118.2,5935.1-1133.6z"/><path d="M5935.1-2360c-70.9-38.3-105.4-99.6-105.4-184c0-67.1,11.5-93.9,55.6-139.9l55.6-55.6h1101.9c1075,0,1101.9,0,1149.8,38.3c72.8,57.5,99.6,153.3,63.2,235.7c-53.6,132.2-23,128.4-1213,128.4C6303.1-2338.9,5962-2344.7,5935.1-2360z"/></g></g>
</svg>