<?xml version="1.0" encoding="utf-8"?>
<!-- Svg Vector Icons : http://www.onlinewebfonts.com/icon -->
<!DOCTYPE svg PUBLIC "-//W3C//DTD SVG 1.1//EN" "http://www.w3.org/Graphics/SVG/1.1/DTD/svg11.dtd">
<svg version="1.1" xmlns="http://www.w3.org/2000/svg" xmlns:xlink="http://www.w3.org/1999/xlink" x="0px" y="0px" viewBox="0 0 1000 1000" enable-background="new 0 0 1000 1000" xml:space="preserve">
<metadata> Svg Vector Icons : http://www.onlinewebfonts.com/icon </metadata>
<g><g><g><polygon points="990,918.8 893,858 893,899.1 90.4,899.1 90.4,117.5 131.5,117.5 70.8,20.5 10,117.5 51.2,117.5 51.2,938.4 893,938.4 893,979.5 "/><path d="M165,701.9c25.6,0,46.2-20.7,46.2-46.2c0-18.3-10.6-34-26-41.4l63.5-191.1c2.8,0.6,5.8,0.9,8.7,0.9c11.5,0,21.9-4.3,29.9-11.3l87.9,127.5c-6.6,8-10.6,18-10.6,29.1c0,25.6,20.7,46.3,46.3,46.3c16.2,0,30.5-8.5,38.7-21.2l136.1,49c0,0.3-0.1,0.6-0.1,0.8c0,25.6,20.6,46.3,46.2,46.3c25.6,0,46.3-20.7,46.3-46.3c0-11.7-4.5-22.3-11.8-30.5l57.2-100.4c5.1,1.9,10.6,3.2,16.3,3.2c10.4,0,19.8-3.5,27.6-9.3L879,627.8c-6,7.8-9.6,17.4-9.6,28c0,25.5,20.6,46.2,46.2,46.2c25.5,0,46.3-20.7,46.3-46.2s-20.8-46.2-46.3-46.2c-7.8,0-15.1,2.1-21.5,5.6L780.4,492.4c3.6-6.6,5.8-13.9,5.8-22c0-25.5-20.7-46.3-46.3-46.3s-46.2,20.7-46.2,46.3c0,12.7,5.1,24.2,13.4,32.5l-56.6,99.3c-5.7-2.5-12-4-18.6-4c-18.3,0-33.9,10.7-41.4,26.1l-134-48.2c0.3-2.1,0.7-4.4,0.7-6.6c0-25.5-20.7-46.3-46.2-46.3c-7.3,0-14.1,1.9-20.3,4.8l-90.8-131.7c2.4-5.7,3.8-11.8,3.8-18.4c0-25.6-20.7-46.2-46.3-46.2c-25.5,0-46.3,20.6-46.3,46.2c0,15.5,7.7,29.1,19.4,37.5L166,609.6c-0.3,0-0.6-0.1-1-0.1c-25.5,0-46.2,20.7-46.2,46.2C118.7,681.3,139.4,701.9,165,701.9z"/></g></g><g></g><g></g><g></g><g></g><g></g><g></g><g></g><g></g><g></g><g></g><g></g><g></g><g></g><g></g><g></g></g>
</svg>