<?xml version="1.0" encoding="utf-8"?>
<!-- Svg Vector Icons : http://www.onlinewebfonts.com/icon -->
<!DOCTYPE svg PUBLIC "-//W3C//DTD SVG 1.1//EN" "http://www.w3.org/Graphics/SVG/1.1/DTD/svg11.dtd">
<svg version="1.1" xmlns="http://www.w3.org/2000/svg" xmlns:xlink="http://www.w3.org/1999/xlink" x="0px" y="0px" viewBox="0 0 1000 1000" enable-background="new 0 0 1000 1000" xml:space="preserve">
<metadata> Svg Vector Icons : http://www.onlinewebfonts.com/icon </metadata>
<g><path d="M500,43.8c-265.6,0-490,190.8-490,416.6c0,105.9,48.9,205.3,137.9,280.9L89.6,934.4c-2,6.6,0.2,13.7,5.6,18c3.1,2.5,6.8,3.8,10.6,3.8c2.8,0,5.6-0.7,8.2-2.1l210.8-116.4c55.9,17.6,114.8,26.6,175.3,26.6c270.2,0,490-181.2,490-403.9C990,234.6,765.6,43.8,500,43.8z M500,830.5c-59.4,0-117.2-9.1-171.8-27.1c-4.5-1.5-9.4-1-13.5,1.3l-180.9,99.8l49.5-164c2-6.6-0.2-13.7-5.6-18c-86.5-70-134.1-163-134.1-262C43.8,252.9,252.7,77.6,500,77.6s456.2,175.3,456.2,382.8C956.2,664.5,751.6,830.5,500,830.5z"/><path d="M736.6,314.1H297.2c-9.3,0-16.9,7.6-16.9,16.9c0,9.3,7.6,16.9,16.9,16.9h439.3c9.3,0,16.9-7.6,16.9-16.9C753.4,321.7,745.9,314.1,736.6,314.1z"/><path d="M669,449.3H297.2c-9.3,0-16.9,7.6-16.9,16.9c0,9.3,7.6,16.9,16.9,16.9H669c9.3,0,16.9-7.6,16.9-16.9C685.9,456.9,678.3,449.3,669,449.3z"/><path d="M601.4,584.5H297.2c-9.3,0-16.9,7.6-16.9,16.9c0,9.3,7.6,16.9,16.9,16.9h304.1c9.3,0,16.9-7.6,16.9-16.9C618.3,592,610.7,584.5,601.4,584.5z"/></g>
</svg>