<?xml version="1.0" encoding="utf-8"?>
<!-- Svg Vector Icons : http://www.onlinewebfonts.com/icon -->
<!DOCTYPE svg PUBLIC "-//W3C//DTD SVG 1.1//EN" "http://www.w3.org/Graphics/SVG/1.1/DTD/svg11.dtd">
<svg version="1.1" xmlns="http://www.w3.org/2000/svg" xmlns:xlink="http://www.w3.org/1999/xlink" x="0px" y="0px" viewBox="0 0 1000 1000" enable-background="new 0 0 1000 1000" xml:space="preserve">
<metadata> Svg Vector Icons : http://www.onlinewebfonts.com/icon </metadata>
<g><path d="M935.3,634.6h-69.7V500c0-30.1-24.5-54.7-54.7-54.7H517.4v-79.9h77.2c30.1,0,54.7-24.5,54.7-54.7V121.5c0-30.1-24.5-54.7-54.7-54.7H405.4c-30.1,0-54.7,24.5-54.7,54.7v189.3c0,30.1,24.5,54.7,54.7,54.7h78.3v79.9H189.1c-30.1,0-54.7,24.5-54.7,54.7v134.6H64.7c-30.1,0-54.7,24.5-54.7,54.7v189.3c0,30.1,24.5,54.7,54.7,54.7h189.3c30.1,0,54.7-24.5,54.7-54.7V689.3c0-30.1-24.5-54.7-54.7-54.7H168V500c0-11.6,9.4-21,21-21h294.6v155.7h-78.3c-30.1,0-54.7,24.5-54.7,54.7v189.3c0,30.1,24.5,54.7,54.7,54.7h189.3c30.1,0,54.7-24.5,54.7-54.7V689.3c0-30.1-24.5-54.7-54.7-54.7h-77.2V479h293.5c11.6,0,21,9.4,21,21v134.6h-85.9c-30.1,0-54.7,24.5-54.7,54.7v189.3c0,30.1,24.5,54.7,54.7,54.7h189.3c30.1,0,54.7-24.5,54.7-54.7V689.3C990,659.1,965.5,634.6,935.3,634.6z M253.9,668.2c11.6,0,21,9.4,21,21v189.3c0,11.6-9.4,21-21,21H64.7c-11.6,0-21-9.4-21-21V689.3c0-11.6,9.4-21,21-21H253.9z M594.6,668.2c11.6,0,21,9.4,21,21v189.3c0,11.6-9.4,21-21,21H405.4c-11.6,0-21-9.4-21-21V689.3c0-11.6,9.4-21,21-21H594.6z M483.7,331.8h-78.3c-11.6,0-21-9.4-21-21V121.5c0-11.6,9.4-21,21-21h189.3c11.6,0,21,9.4,21,21v189.3c0,11.6-9.4,21-21,21H483.7z M956.4,878.6c0,11.6-9.4,21-21,21H746.1c-11.6,0-21-9.4-21-21V689.3c0-11.6,9.4-21,21-21h189.3c11.6,0,21,9.4,21,21L956.4,878.6L956.4,878.6z"/></g>
</svg>