<?xml version="1.0" encoding="utf-8"?>
<!-- Svg Vector Icons : http://www.onlinewebfonts.com/icon -->
<!DOCTYPE svg PUBLIC "-//W3C//DTD SVG 1.1//EN" "http://www.w3.org/Graphics/SVG/1.1/DTD/svg11.dtd">
<svg version="1.1" xmlns="http://www.w3.org/2000/svg" xmlns:xlink="http://www.w3.org/1999/xlink" x="0px" y="0px" viewBox="0 0 1000 1000" enable-background="new 0 0 1000 1000" xml:space="preserve">
<metadata> Svg Vector Icons : http://www.onlinewebfonts.com/icon </metadata>
<g><g transform="translate(0.000000,511.000000) scale(0.100000,-0.100000)"><path d="M3139.5,4015.6c-17.2-24.9-168.4-275.6-340.7-560.8c-170.3-283.3-327.3-539.8-348.4-568.5l-36.4-53.6H1660c-696.7,0-761.8-1.9-874.7-38.3c-229.7-70.8-470.8-262.2-576.1-457.5C96.2,2130.3,100,2248.9,100-492c0-1755.2,5.7-2541.8,21.1-2612.6c57.4-277.5,264.1-535.9,526.4-660.3l151.2-72.7h4184.1h4184.1l160.8,80.4c185.7,91.9,352.2,243.1,451.7,409.6c126.3,212.5,120.6,72.8,120.6,2840.4c0,2783,9.6,2583.9-128.3,2846.2c-88,166.5-268,340.7-440.2,423l-130.1,61.3l-809.6,5.7l-807.7,5.7l-47.9,70.8c-26.8,40.2-193.3,313.9-371.3,606.7l-323.5,535.9l-1837.5,5.7l-1837.5,3.8L3139.5,4015.6z M6709.2,3119.8c103.4-174.2,260.3-442.1,350.3-597.2l164.6-283.3h901.5c886.2,0,905.3,0,970.4-40.2c76.6-47.8,101.4-74.6,153.1-174.2c38.3-70.8,38.3-109.1,34.5-2557.1l-5.7-2482.5l-42.1-55.5c-24.9-30.6-76.6-78.5-114.8-109.1l-72.7-53.6l-4065.4-1.9H917.3l-65.1,49.8c-34.4,26.8-80.4,82.3-101.4,122.5c-38.3,74.6-38.3,116.7-38.3,2568.6v2494l47.9,70.8c26.8,40.2,88,88,147.4,118.7l99.5,49.8h884.3h884.3l321.6,532.1c176.1,290.9,340.7,562.7,365.6,602.9l44,70.8l1506.3-3.8l1508.3-5.7L6709.2,3119.8z"/><path d="M4732,1912.1c-721.6-82.3-1406.8-591.4-1695.8-1261.3c-543.6-1253.7,218.2-2679.6,1569.5-2938c201-38.3,587.6-38.3,788.6,0c687.1,130.1,1247.9,566.6,1548.5,1202c178,375.2,235.4,782.8,172.3,1205.8c-141.7,943.6-916.8,1686.3-1871.9,1791.5C5036.3,1935,4938.7,1935,4732,1912.1z M5392.3,1272.8c172.3-45.9,444.1-185.7,578-296.7c233.5-189.5,438.3-509.1,516.8-803.9c45.9-170.4,45.9-574.2-1.9-746.5c-134-493.8-516.8-903.4-995.3-1062.3c-1020.2-340.7-2074.8,449.8-2015.5,1512.1c13.4,231.6,47.9,373.2,145.5,574.2c206.7,434.5,587.6,735,1064.2,840.3C4850.6,1326.4,5225.8,1318.7,5392.3,1272.8z"/></g></g>
</svg>