<?xml version="1.0" encoding="utf-8"?>
<!-- Svg Vector Icons : http://www.onlinewebfonts.com/icon -->
<!DOCTYPE svg PUBLIC "-//W3C//DTD SVG 1.1//EN" "http://www.w3.org/Graphics/SVG/1.1/DTD/svg11.dtd">
<svg version="1.1" xmlns="http://www.w3.org/2000/svg" xmlns:xlink="http://www.w3.org/1999/xlink" x="0px" y="0px" viewBox="0 0 1000 1000" enable-background="new 0 0 1000 1000" xml:space="preserve">
<metadata> Svg Vector Icons : http://www.onlinewebfonts.com/icon </metadata>
<g><g transform="translate(0.000000,512.000000) scale(0.100000,-0.100000)"><path d="M4808.5,5014.8c-26.8-3.8-99.6-17.2-162.8-28.7C4061.5,4886.5,3506.1,4469,3234.1,3925c-128.3-254.7-189.6-465.4-218.3-750.8l-13.4-139.8h153.2h153.2l11.5,159c44.1,549.7,358.2,1041.9,840.8,1313.9c122.6,69,183.9,69,275.8-1.9c99.6-78.5,103.4-113,103.4-819.7v-651.2h153.2h153.2v637.8c0,702.9-5.7,752.7-116.8,919.3c-32.6,51.7-53.6,97.7-46,105.3c17.2,17.2,614.8,17.2,632.1,0c7.7-7.7-3.8-36.4-24.9-67c-19.1-28.7-57.5-91.9-82.3-139.8c-46-86.2-46-91.9-51.7-770l-5.8-685.7h153.2h155.1v651.2c0,706.7,3.8,741.2,103.4,819.7c93.8,72.8,151.3,70.9,285.4-1.9c465.4-262.4,787.2-773.8,831.3-1319.7l11.5-149.4h153.2h153.2l-13.4,139.8c-30.6,300.7-93.8,515.2-235.6,783.4c-272,517.1-777.6,898.3-1356,1022.8C5258.6,5009.1,4898.5,5030.2,4808.5,5014.8z"/><path d="M2711.2,2973.1c40.2-183.9,189.6-344.8,444.4-478.8c948.1-496.1,2710.1-501.8,3667.8-11.5c272,139.8,430.9,304.5,467.3,492.2l13.4,59.4h-153.2h-151.3l-23-65.1c-113-312.2-963.4-547.8-1976.6-547.8c-1013.2,0-1863.6,235.6-1976.6,547.8l-23,65.1h-151.3h-151.3L2711.2,2973.1z"/><path d="M3161.3,1950.4c0-174.3,13.4-214.5,97.7-304.5c46-49.8,57.5-82.4,74.7-229.8c38.3-310.3,139.8-632,272-871.5c70.9-124.5,226-340.9,281.5-390.7c38.3-34.5,40.2-57.4,40.2-434.8v-398.4l-70.9-57.5c-155.1-126.4-540.1-295-1231.5-538.2c-488.4-172.4-658.9-241.3-938.5-385c-522.9-266.2-838.9-549.7-1005.5-902.1c-116.8-243.3-124.5-333.3-124.5-1329.2V-4780h153.2H863v905.9c0,997.9,1.9,1024.7,120.7,1246.9c162.8,308.4,618.6,643.5,1158.8,852.3l99.6,40.2v-1522.7V-4780h153.2h153.2l3.8,1582l5.7,1582.1l268.1,95.8c147.5,51.7,283.5,99.6,302.6,105.3c30.6,9.6,32.6-78.5,32.6-1677.8V-4780h153.2h153.2v1758.2v1756.3l159,80.4c136,70.9,277.7,159,427.1,264.3c38.3,28.7,55.5,11.5,438.6-434.8c218.3-256.7,421.4-476.9,452-492.2c47.9-24.9,63.2-24.9,111.1,0c30.6,15.3,233.7,235.6,452,492.2c383.1,446.3,400.3,463.5,438.6,434.8c149.4-105.3,291.1-193.5,427.1-264.3l159-80.4v-1756.3V-4780h153.2h153.2v1687.4c0,1599.3,1.9,1687.4,34.5,1677.8c17.2-5.8,153.2-53.6,300.7-105.3l268.1-95.8l5.7-1582.1l3.8-1582h153.2H7758v1522.7v1522.7l101.5-40.2c551.6-216.4,1007.5-553.5,1162.6-860c113-224.1,114.9-247.1,114.9-1239.2V-4780h153.2h153.2v890.6c0,982.5-7.7,1076.4-116.8,1310.1c-243.3,528.6-808.3,907.8-1913.4,1289c-637.8,220.3-1118.5,429-1267.9,553.5l-72.8,57.5V-279c0,340.9,3.8,400.3,30.6,423.3c47.9,38.3,189.6,227.9,258.6,344.7c149.4,250.9,264.3,605.2,304.5,932.7c17.3,141.7,28.7,176.2,74.7,224.1c84.3,90,97.7,130.2,97.7,304.5v164.7h-153.2h-153.2v-120.7c0-105.3-5.7-128.3-49.8-168.6c-78.5-72.8-97.7-128.3-109.2-323.7c-23-348.6-157.1-737.4-348.6-1005.5c-499.9-702.9-1547.6-702.9-2049.4-1.9c-193.4,272-325.6,655-348.6,1007.5c-11.5,195.4-30.6,250.9-109.2,323.7c-44.1,40.2-49.8,63.2-49.8,168.6v120.7h-153.2h-153.2V1950.4z M4369.9-200.5c206.9-92,363.9-124.5,630.1-124.5c289.2,0,411.8,28.7,743.1,174.3c17.3,7.7,23-42.1,23-214.5v-224.1l-375.4-438.6c-206.9-241.3-383.1-438.6-390.7-438.6s-183.9,197.3-390.7,438.6l-375.4,438.6v222.2c0,122.6,3.8,222.2,7.7,222.2C4245.4-145,4302.8-169.9,4369.9-200.5z"/><path d="M3774.2-2481.6v-153.2H5000h1225.8v153.2v153.2H5000H3774.2V-2481.6z"/><path d="M3774.2-3401v-153.2H5000h1225.8v153.2v153.2H5000H3774.2V-3401z"/><path d="M3774.2-4320.3v-153.2H5000h1225.8v153.2v153.2H5000H3774.2V-4320.3z"/></g></g>
</svg>